<svg xmlns="http://www.w3.org/2000/svg">
    <symbol id="arrow-alt-down" viewBox="0 0 448 512">
      <path d="M176 32h96c13.3 0 24 10.7 24 24v200h103.8c21.4 0 32.1 25.8 17 41L241 473c-9.4 9.4-24.6 9.4-34 0L31.3 297c-15.1-15.1-4.4-41 17-41H152V56c0-13.3 10.7-24 24-24z"></path>
    </symbol>
    <symbol id="arrow-down" viewBox="0 0 448 512">
      <path d="M413.1 222.5l22.2 22.2c9.4 9.4 9.4 24.6 0 33.9L241 473c-9.4 9.4-24.6 9.4-33.9 0L12.7 278.6c-9.4-9.4-9.4-24.6 0-33.9l22.2-22.2c9.5-9.5 25-9.3 34.3.4L184 343.4V56c0-13.3 10.7-24 24-24h32c13.3 0 24 10.7 24 24v287.4l114.8-120.5c9.3-9.8 24.8-10 34.3-.4z"></path>
    </symbol>
    <symbol id="circle" viewBox="0 0 496 496">
      <path d="M496 248c0 137-111 248-248 248S0 385 0 248 111 0 248 0s248 111 248 248z"></path>
    </symbol>
    <symbol id="star" viewBox="0 0 576 512">
      <path d="M259.3 17.8L194 150.2 47.9 171.5c-26.2 3.8-36.7 36.1-17.7 54.6l105.7 103-25 145.5c-4.5 26.3 23.2 46 46.4 33.7L288 439.6l130.7 68.7c23.2 12.2 50.9-7.4 46.4-33.7l-25-145.5 105.7-103c19-18.5 8.5-50.8-17.7-54.6L382 150.2 316.7 17.8c-11.7-23.6-45.6-23.9-57.4 0z"></path>
    </symbol>
    <symbol id="trophy" viewBox="0 0 576 512">
      <path d="M552 64H448V24c0-13.3-10.7-24-24-24H152c-13.3 0-24 10.7-24 24v40H24C10.7 64 0 74.7 0 88v56c0 35.7 22.5 72.4 61.9 100.7 31.5 22.7 69.8 37.1 110 41.7C203.3 338.5 240 360 240 360v72h-48c-35.3 0-64 20.7-64 56v12c0 6.6 5.4 12 12 12h296c6.6 0 12-5.4 12-12v-12c0-35.3-28.7-56-64-56h-48v-72s36.7-21.5 68.1-73.6c40.3-4.6 78.6-19 110-41.7 39.3-28.3 61.9-65 61.9-100.7V88c0-13.3-10.7-24-24-24zM99.3 192.8C74.9 175.2 64 155.6 64 144v-16h64.2c1 32.6 5.8 61.2 12.8 86.2-15.1-5.2-29.2-12.4-41.7-21.4zM512 144c0 16.1-17.7 36.1-35.3 48.8-12.5 9-26.7 16.2-41.8 21.4 7-25 11.8-53.6 12.8-86.2H512v16z"></path>
    </symbol>
</svg>
